<svg width="390" height="183" viewBox="0 0 390 183" fill="none" xmlns="http://www.w3.org/2000/svg">
<g clip-path="url(#clip0_714_32)">
<path d="M367.743 102.912C377.647 102.912 385.676 94.8918 385.676 84.9986C385.676 75.1053 377.647 67.0853 367.743 67.0853C357.839 67.0853 349.811 75.1053 349.811 84.9986C349.811 94.8918 357.839 102.912 367.743 102.912Z" fill="#F2F2F2"/>
<path d="M367.744 89.7126C370.35 89.7126 372.463 87.6021 372.463 84.9986C372.463 82.3951 370.35 80.2845 367.744 80.2845C365.137 80.2845 363.024 82.3951 363.024 84.9986C363.024 87.6021 365.137 89.7126 367.744 89.7126Z" fill="#E6E6E6"/>
<path d="M366.881 85.0993C368.869 86.7192 369.475 89.2724 369.105 91.7377C368.651 94.4418 367.246 96.8955 365.144 98.6583C362.78 100.757 359.897 102.175 357.114 103.628C354.558 104.931 352.101 106.421 349.764 108.085C340.817 114.581 334.057 123.831 330.188 134.153C326.326 144.458 325.289 156.154 328.224 166.834C329.676 172.118 332.614 177.819 338.086 179.808C342.448 181.393 348.404 180.372 350.625 175.881C353.011 171.056 349.682 165.634 345.394 163.239C339.836 160.134 333.197 162.403 328.197 165.545C322.694 169.005 318.269 173.969 312.523 177.07C309.936 178.51 307.058 179.349 304.102 179.524C301.388 179.631 298.678 179.213 296.123 178.293C290.82 176.363 286.256 172.823 283.069 168.171C279.419 162.871 277.785 156.374 277.487 150.01C276.821 135.771 282.452 122.45 286.97 109.244C289.398 102.368 291.217 95.2918 292.406 88.0975C293.536 80.8667 293.939 73.5409 293.607 66.2299C293.308 59.7652 292.669 53.0051 289.813 47.1009C287.302 41.9092 282.711 37.66 276.908 36.5888C274.292 36.0759 271.582 36.3869 269.15 37.479C268.322 37.8562 269.041 39.0754 269.865 38.7001C275 36.3598 281.071 38.6368 284.864 42.4156C289.293 46.8282 290.92 53.3445 291.642 59.3572C293.265 73.6068 291.986 88.0371 287.882 101.78C283.943 115.145 277.747 127.953 276.318 141.956C275.665 148.345 276 154.951 278.045 161.078C279.799 166.536 283.088 171.374 287.52 175.016C291.693 178.385 296.826 180.681 302.23 180.937C308.296 181.224 313.616 178.522 318.322 174.929C323.362 171.08 328 166.331 334.106 164.173C336.89 163.189 340.06 162.73 342.918 163.677C345.37 164.514 347.45 166.184 348.794 168.397C350.036 170.459 350.494 173.037 349.361 175.252C348.296 177.334 346.217 178.539 343.967 178.951C341.584 179.372 339.128 178.955 337.018 177.771C334.553 176.365 332.749 174.005 331.485 171.511C328.965 166.538 328.118 160.618 327.99 155.098C327.877 149.706 328.569 144.328 330.042 139.14C332.973 128.644 338.889 119.224 347.073 112.02C349.134 110.226 351.34 108.604 353.667 107.17C356.206 105.607 358.916 104.358 361.504 102.883C364.051 101.432 366.561 99.6975 368.315 97.3093C369.81 95.2625 370.617 92.7952 370.621 90.2615C370.648 89.0962 370.416 87.9394 369.943 86.874C369.469 85.8087 368.766 84.8611 367.882 84.0993C367.182 83.5287 366.175 84.5234 366.881 85.0993Z" fill="#CCCCCC"/>
<path d="M199.47 167.494C205.74 171.543 212.994 173.814 220.456 174.065C220.323 174.381 220.173 174.689 220.007 174.989C219.139 176.591 217.911 177.97 216.421 179.02C214.656 180.261 212.584 180.993 210.431 181.138C208.278 181.283 206.126 180.834 204.211 179.841C202.295 178.848 200.69 177.349 199.569 175.506C198.448 173.664 197.856 171.55 197.856 169.394V167.494H199.47Z" fill="#3F3D56"/>
<path d="M243.485 168.05V169.394C243.486 172.009 242.614 174.551 241.008 176.616C239.402 178.682 237.153 180.154 234.615 180.8C232.078 181.446 229.398 181.229 226.998 180.184C224.597 179.138 222.614 177.324 221.362 175.027C221.189 174.72 221.033 174.404 220.895 174.08C221.239 174.089 221.579 174.094 221.923 174.094C229.531 174.103 236.993 172.011 243.485 168.05Z" fill="#3F3D56"/>
<path d="M259.36 25.979C259.006 25.9271 258.647 25.8941 258.289 25.8705C262.364 35.2528 262.646 45.8466 259.077 55.4322C259.435 55.3898 259.789 55.3332 260.143 55.2672C263.599 54.5983 266.705 52.726 268.909 49.9836C271.112 47.2412 272.27 43.8067 272.176 40.2915C272.082 36.7762 270.742 33.4084 268.395 30.7874C266.049 28.1665 262.847 26.4626 259.36 25.979Z" fill="#3F3D56"/>
<path d="M185.558 25.8705C185.2 25.8941 184.841 25.9271 184.487 25.979C181 26.4626 177.798 28.1665 175.451 30.7874C173.104 33.4084 171.764 36.7762 171.67 40.2914C171.576 43.8067 172.734 47.2412 174.938 49.9836C177.141 52.726 180.247 54.5983 183.703 55.2672C184.057 55.3332 184.411 55.3898 184.77 55.4322C181.2 45.8466 181.483 35.2528 185.558 25.8705Z" fill="#3F3D56"/>
<path d="M259.36 25.979C255.472 16.7017 248.271 9.19922 239.155 4.92907C230.04 0.658922 219.661 -0.0739986 210.034 2.8727C200.408 5.81939 192.222 12.2353 187.066 20.874C181.911 29.5127 180.154 39.7573 182.137 49.6176C184.12 59.4779 189.701 68.2498 197.797 74.2292C205.892 80.2085 215.924 82.9684 225.943 81.9727C235.961 80.9769 245.252 76.2966 252.009 68.841C258.766 61.3854 262.508 51.6868 262.507 41.6295C262.505 36.256 261.436 30.9363 259.36 25.979ZM259.077 55.4322C255.624 64.7018 248.824 72.345 240.014 76.8573C231.203 81.3697 221.021 82.4244 211.471 79.8139C201.922 77.2034 193.696 71.1167 188.413 62.7519C183.131 54.3871 181.174 44.35 182.927 34.6162C184.681 24.8824 190.019 16.1568 197.89 10.1569C205.761 4.15706 215.595 1.31744 225.456 2.19697C235.318 3.0765 244.493 7.61147 251.175 14.9093C257.858 22.2072 261.564 31.7393 261.563 41.6295C261.562 46.3415 260.72 51.0154 259.077 55.4322Z" fill="#3F3D56"/>
<path d="M242.687 32.4372H201.159C198.969 32.4372 196.868 33.3063 195.32 34.8534C193.771 36.4005 192.901 38.4988 192.901 40.6867C192.901 42.8747 193.771 44.973 195.32 46.52C196.868 48.0671 198.969 48.9363 201.159 48.9363H242.687C244.878 48.9363 246.978 48.0671 248.527 46.52C250.076 44.973 250.946 42.8747 250.946 40.6867C250.946 38.4988 250.076 36.4005 248.527 34.8534C246.978 33.3063 244.878 32.4372 242.687 32.4372Z" fill="#3F3D56"/>
<path d="M221.923 90.184C210.829 90.1891 200.176 94.5307 192.245 102.28C184.314 110.03 179.733 120.572 179.483 131.651C179.233 142.731 183.333 153.469 190.906 161.568C198.479 169.667 208.924 174.484 220.007 174.989C220.456 175.013 220.909 175.027 221.362 175.027C221.55 175.037 221.734 175.036 221.923 175.036C233.187 175.036 243.99 170.567 251.955 162.61C259.92 154.654 264.395 143.862 264.395 132.61C264.395 121.358 259.92 110.567 251.955 102.61C243.99 94.6539 233.187 90.184 221.923 90.184ZM243.485 168.05C236.992 172.011 229.531 174.103 221.923 174.094C221.579 174.094 221.239 174.089 220.894 174.08C220.748 174.08 220.602 174.075 220.456 174.065C210.483 173.719 200.969 169.8 193.651 163.024C186.333 156.247 181.701 147.067 180.6 137.16C179.5 127.253 182.005 117.282 187.658 109.068C193.311 100.854 201.734 94.9469 211.387 92.4254C221.041 89.9039 231.281 90.9368 240.235 95.3353C249.189 99.7337 256.26 107.204 260.155 116.381C264.05 125.558 264.509 135.828 261.448 145.315C258.387 154.802 252.011 162.872 243.485 168.05Z" fill="#3F3D56"/>
<path d="M251.732 122.161H233.17C231.877 122.161 230.637 121.648 229.722 120.734C228.808 119.821 228.294 118.582 228.294 117.29C228.294 115.998 228.808 114.759 229.722 113.845C230.637 112.932 231.877 112.418 233.17 112.418H251.732C253.026 112.418 254.266 112.932 255.18 113.845C256.095 114.759 256.609 115.998 256.609 117.29C256.609 118.582 256.095 119.821 255.18 120.734C254.266 121.648 253.026 122.161 251.732 122.161Z" fill="#3F3D56"/>
<path d="M234.408 119.762C235.775 119.762 236.883 118.655 236.883 117.29C236.883 115.924 235.775 114.817 234.408 114.817C233.041 114.817 231.933 115.924 231.933 117.29C231.933 118.655 233.041 119.762 234.408 119.762Z" fill="#F2F2F2"/>
<path d="M242.451 119.762C243.818 119.762 244.926 118.655 244.926 117.29C244.926 115.924 243.818 114.817 242.451 114.817C241.085 114.817 239.977 115.924 239.977 117.29C239.977 118.655 241.085 119.762 242.451 119.762Z" fill="#F2F2F2"/>
<path d="M250.495 119.762C251.862 119.762 252.97 118.655 252.97 117.29C252.97 115.924 251.862 114.817 250.495 114.817C249.128 114.817 248.02 115.924 248.02 117.29C248.02 118.655 249.128 119.762 250.495 119.762Z" fill="#6C63FF"/>
<path d="M77.6883 179.933C81.932 176.351 84.5097 170.693 83.8337 165.184C83.1577 159.675 78.9708 154.611 73.5398 153.441C68.1087 152.272 61.9177 155.51 60.2682 160.809C59.3603 150.592 58.3142 139.947 52.8761 131.245C47.9521 123.367 39.4236 117.729 30.1806 116.721C20.9375 115.712 11.2059 119.521 5.44133 126.809C-0.323185 134.097 -1.73461 144.691 2.30271 153.058C5.27687 159.221 10.7563 163.808 16.4974 167.54C34.8134 179.445 57.5345 183.468 79.1539 180.29L77.6883 179.933Z" fill="#F2F2F2"/>
<path d="M14.5814 119.733C22.208 125.938 29.2046 132.878 35.47 140.453C41.7364 148.02 47.2533 156.176 51.9432 164.807C54.5647 169.648 56.9196 174.629 58.9974 179.727C59.4211 180.764 57.7353 181.216 57.3163 180.19C53.636 171.202 49.0826 162.596 43.7217 154.496C38.3867 146.425 32.2806 138.89 25.489 131.996C21.6477 128.099 17.5948 124.416 13.3486 120.964C12.4783 120.256 13.7182 119.03 14.5814 119.733Z" fill="white"/>
<path d="M76.2493 31.1126C84.3288 31.1126 90.8785 24.5699 90.8785 16.4991C90.8785 8.4283 84.3288 1.88562 76.2493 1.88562C68.1698 1.88562 61.6201 8.4283 61.6201 16.4991C61.6201 24.5699 68.1698 31.1126 76.2493 31.1126Z" fill="#2F2E41"/>
<path d="M130.81 70.0086C130.53 70.4298 130.188 70.8068 129.796 71.1271C129.232 71.5919 128.576 71.9324 127.87 72.1262C127.165 72.3199 126.427 72.3626 125.704 72.2515C124.981 72.1403 124.289 71.8778 123.675 71.4811C123.061 71.0845 122.537 70.5626 122.139 69.9497C122.047 69.8069 121.962 69.6593 121.885 69.5076L98.8326 67.2859C97.0132 67.1036 95.3011 66.3401 93.9505 65.1088C92.6 63.8775 91.6828 62.244 91.3353 60.4507L90.0269 53.5602L99.0235 52.162L100.638 57.6815L123.114 63.1965C123.288 63.0439 123.473 62.9037 123.666 62.7769C124.669 62.1269 125.865 61.8424 127.054 61.9713C128.242 62.1003 129.349 62.6347 130.189 63.4846C131.028 64.3344 131.549 65.4475 131.662 66.6361C131.775 67.8247 131.474 69.0158 130.81 70.0086Z" fill="#FFB8B8"/>
<path d="M101.191 56.8483L91.1409 59.5602C90.5972 59.7063 90.0177 59.6309 89.5295 59.3507C89.0413 59.0705 88.6844 58.6083 88.537 58.0655L85.017 45.0492C84.6399 43.655 84.7929 42.1706 85.4466 40.8824C86.1002 39.5942 87.2082 38.5934 88.5568 38.0729C89.9054 37.5524 91.3992 37.5491 92.7501 38.0637C94.101 38.5782 95.2134 39.5742 95.8727 40.8595L102.527 53.8331C102.671 54.1144 102.751 54.4243 102.76 54.7402C102.769 55.0562 102.707 55.3701 102.579 55.6591C102.451 55.9481 102.26 56.2049 102.019 56.4107C101.779 56.6164 101.496 56.7659 101.191 56.8483Z" fill="#2F2E41"/>
<path d="M95.3691 176.367H101.154L103.907 154.076L95.3677 154.076L95.3691 176.367Z" fill="#FFB8B8"/>
<path d="M112.312 181.733L94.1295 181.734L94.1292 174.716L105.287 174.716C107.15 174.716 108.937 175.455 110.255 176.771C111.572 178.087 112.312 179.872 112.312 181.733Z" fill="#2F2E41"/>
<path d="M43.8037 170.735L49.2165 172.776L59.675 152.893L51.6865 149.881L43.8037 170.735Z" fill="#FFB8B8"/>
<path d="M57.7573 181.734L40.7465 175.318L43.228 168.753L53.6665 172.69C55.4096 173.347 56.8199 174.669 57.587 176.366C58.3542 178.062 58.4155 179.993 57.7573 181.734Z" fill="#2F2E41"/>
<path d="M95.1866 171.19C94.7382 171.189 94.3013 171.047 93.9388 170.783C93.5763 170.52 93.3068 170.148 93.1689 169.722L78.413 124.201C78.3692 124.066 78.2859 123.947 78.1738 123.86C78.0616 123.773 77.9259 123.722 77.7842 123.713C77.6425 123.704 77.5014 123.738 77.3792 123.81C77.2569 123.882 77.1592 123.989 77.0987 124.117L56.6488 167.581C56.4273 168.051 56.0411 168.424 55.5632 168.628C55.0853 168.833 54.5489 168.856 54.0555 168.692L46.0014 166.01C45.4899 165.838 45.0626 165.479 44.8061 165.005C44.5496 164.531 44.483 163.977 44.6198 163.456L57.1464 116.058C58.4572 111.037 59.404 105.928 59.9795 100.771C60.8579 92.2798 64.8434 84.4109 71.1717 78.6736C73.9348 76.1447 75.731 72.7344 76.2522 69.0273L76.2859 68.7902L94.6308 71.6835L106.251 166.402C106.311 166.909 106.187 167.42 105.901 167.843C105.616 168.266 105.188 168.573 104.695 168.708L95.7411 171.116C95.5604 171.165 95.3739 171.19 95.1866 171.19Z" fill="#2F2E41"/>
<path d="M82.0613 31.043C88.4626 31.043 93.6519 25.8593 93.6519 19.4649C93.6519 13.0704 88.4626 7.88672 82.0613 7.88672C75.66 7.88672 70.4707 13.0704 70.4707 19.4649C70.4707 25.8593 75.66 31.043 82.0613 31.043Z" fill="#FFB8B8"/>
<path d="M93.4905 73.7031C93.4543 73.7031 93.418 73.7022 93.3813 73.7004L75.1959 72.7921C74.6883 72.7692 74.206 72.5643 73.8374 72.2149C73.4688 71.8655 73.2387 71.3951 73.1893 70.8899L70.705 46.6937C70.5231 44.9218 70.7778 43.1323 71.4468 41.4812C72.1158 39.8301 73.1789 38.3675 74.5434 37.2208C75.9078 36.0742 77.5324 35.2782 79.2753 34.9023C81.0183 34.5264 82.8268 34.582 84.5434 35.0642C85.9655 35.4533 87.2908 36.1343 88.4347 37.0638C101.227 47.5583 97.1024 66.5727 95.5335 72.1504C95.4105 72.5971 95.1439 72.9912 94.7748 73.2717C94.4056 73.5523 93.9544 73.7039 93.4905 73.7031Z" fill="#6C63FF"/>
<path d="M77.6696 89.9504C77.1633 89.9505 76.6598 89.8751 76.1758 89.7267C75.4757 89.5148 74.8283 89.1575 74.2761 88.6782C73.7239 88.1989 73.2794 87.6085 72.9715 86.9457C72.6637 86.2828 72.4995 85.5624 72.4898 84.8318C72.4801 84.1011 72.6251 83.3766 72.9153 82.7058C72.9832 82.55 73.0593 82.3979 73.1433 82.2501L62.2255 61.8472C61.3696 60.2331 61.0576 58.3863 61.3357 56.581C61.6139 54.7757 62.4674 53.1081 63.7695 51.8257L68.7877 46.9207L74.9364 53.6285L71.2305 58.0286L79.0841 79.7761C79.3077 79.8364 79.5268 79.9122 79.7398 80.0031C80.8368 80.4769 81.7367 81.3143 82.2874 82.3739C82.8382 83.4335 83.0061 84.6505 82.7628 85.8195C82.5195 86.9884 81.88 88.0377 80.9521 88.7903C80.0242 89.5429 78.8648 89.9526 77.6696 89.9504Z" fill="#FFB8B8"/>
<path d="M72.2313 58.0267L64.4042 51.1708C63.9813 50.7995 63.7231 50.2758 63.6862 49.7146C63.6493 49.1534 63.8369 48.6005 64.2076 48.1772L73.1063 38.0397C74.0595 36.9538 75.3814 36.2589 76.8172 36.0889C78.2529 35.919 79.7008 36.286 80.8816 37.1193C82.0625 37.9526 82.8926 39.1931 83.2121 40.6016C83.5315 42.0102 83.3176 43.487 82.6116 44.7473L75.4845 57.4677C75.33 57.7436 75.1158 57.9814 74.8574 58.1639C74.5991 58.3464 74.3032 58.4689 73.9914 58.5224C73.6795 58.576 73.3597 58.5593 73.0552 58.4735C72.7506 58.3878 72.4691 58.2351 72.2313 58.0267Z" fill="#2F2E41"/>
<path d="M74.6025 30.7116C75.66 31.0862 76.9565 31.4164 77.7886 30.6395C78.601 29.8811 78.453 28.4942 77.9744 27.4724C77.4959 26.4507 76.7536 25.5414 76.526 24.4293C76.1999 22.8354 77.0432 21.1795 78.2469 20.1404C79.4507 19.1013 80.966 18.5554 82.4452 18.0301L90.5588 15.149C92.5672 14.4359 94.7314 13.5981 95.8553 11.7214C97.4815 9.0058 95.9948 5.12405 93.3274 3.53947C90.6599 1.95488 87.2906 2.25008 84.4126 3.36429C82.8209 3.98053 81.3067 4.82972 79.6606 5.26352C76.4119 6.11966 72.7179 5.35161 69.8631 7.18142C67.3779 8.77425 66.2252 12.0243 66.3089 15.0653C66.3926 18.1063 67.5135 21.0024 68.6958 23.7835C69.3992 25.4381 70.1506 27.1118 71.342 28.4278C72.5334 29.7437 74.255 30.6644 75.9748 30.4222L74.6025 30.7116Z" fill="#2F2E41"/>
<path d="M63.9797 18.8561C69.1923 18.8561 73.4179 14.635 73.4179 9.42805C73.4179 4.22108 69.1923 0 63.9797 0C58.7671 0 54.5415 4.22108 54.5415 9.42805C54.5415 14.635 58.7671 18.8561 63.9797 18.8561Z" fill="#2F2E41"/>
<path d="M140.529 63.8517L140.362 63.8287L140.992 59.2454C141.089 58.5418 140.902 57.8287 140.473 57.2628C140.043 56.6969 139.406 56.3246 138.702 56.2279L128.981 54.8931C128.276 54.7963 127.562 54.9831 126.996 55.4122C126.429 55.8413 126.057 56.4776 125.96 57.1812L122.5 82.326C122.403 83.0296 122.59 83.7427 123.019 84.3086C123.449 84.8745 124.086 85.2468 124.79 85.3435L134.511 86.6783C135.216 86.7751 135.93 86.5883 136.496 86.1592C137.063 85.7301 137.435 85.0938 137.532 84.3902L139.913 67.0912L140.08 67.1142L140.529 63.8517Z" fill="#3F3D56"/>
<path d="M138.396 57.5725L137.186 57.4064C137.223 57.5503 137.224 57.7012 137.188 57.8456C137.153 57.9899 137.083 58.1235 136.984 58.2344C136.885 58.3453 136.76 58.4301 136.621 58.4815C136.481 58.5329 136.331 58.5491 136.183 58.5289L130.871 57.7995C130.724 57.7792 130.584 57.7231 130.463 57.636C130.343 57.5489 130.246 57.4335 130.18 57.3C130.115 57.1666 130.083 57.0191 130.088 56.8706C130.093 56.722 130.135 56.5771 130.209 56.4484L129.079 56.2932C128.831 56.2591 128.578 56.2741 128.335 56.3376C128.093 56.401 127.865 56.5116 127.665 56.6629C127.465 56.8143 127.297 57.0035 127.171 57.2197C127.044 57.4359 126.961 57.6749 126.927 57.923L123.632 81.8723C123.563 82.3734 123.696 82.8814 124.002 83.2845C124.308 83.6876 124.761 83.9528 125.263 84.0217L134.58 85.3011C135.082 85.3699 135.59 85.2369 135.994 84.9313C136.398 84.6256 136.663 84.1723 136.732 83.6712L140.028 59.7219C140.097 59.2207 139.963 58.7127 139.657 58.3096C139.351 57.9066 138.898 57.6414 138.396 57.5725Z" fill="white"/>
<path d="M131.789 77.4561C134.656 77.4561 136.98 75.1345 136.98 72.2707C136.98 69.4069 134.656 67.0853 131.789 67.0853C128.922 67.0853 126.598 69.4069 126.598 72.2707C126.598 75.1345 128.922 77.4561 131.789 77.4561Z" fill="#6C63FF"/>
<path d="M131.274 74.2488C131.157 74.249 131.044 74.2113 130.95 74.1413L130.944 74.137L129.724 73.204C129.668 73.1608 129.62 73.1069 129.584 73.0453C129.548 72.9837 129.525 72.9157 129.515 72.845C129.506 72.7744 129.51 72.7025 129.528 72.6337C129.547 72.5648 129.579 72.5002 129.622 72.4436C129.665 72.387 129.72 72.3396 129.781 72.304C129.843 72.2683 129.911 72.2452 129.982 72.236C130.053 72.2268 130.125 72.2317 130.194 72.2503C130.263 72.2689 130.327 72.3009 130.384 72.3445L131.174 72.9497L133.041 70.5171C133.084 70.4607 133.138 70.4133 133.2 70.3777C133.262 70.3422 133.33 70.3191 133.4 70.3098C133.471 70.3005 133.543 70.3051 133.611 70.3235C133.68 70.3419 133.744 70.3736 133.801 70.4169C133.915 70.5044 133.99 70.6336 134.009 70.7759C134.027 70.9182 133.989 71.0622 133.902 71.1762L131.705 74.0375C131.654 74.1035 131.589 74.1568 131.514 74.1935C131.44 74.2301 131.357 74.249 131.274 74.2488Z" fill="white"/>
<path d="M399.438 182.097H3.36691C3.21817 182.097 3.07567 182.037 2.97065 181.932C2.86562 181.827 2.80664 181.684 2.80664 181.536C2.80664 181.387 2.86562 181.245 2.97065 181.14C3.07567 181.034 3.21817 180.975 3.36691 180.975H399.438C399.587 180.975 399.73 181.034 399.835 181.139C399.941 181.244 400 181.387 400 181.536C400 181.685 399.941 181.828 399.835 181.933C399.73 182.038 399.587 182.097 399.438 182.097Z" fill="#CCCCCC"/>
</g>
<defs>
<clipPath id="clip0_714_32">
<rect width="400" height="182.097" fill="white"/>
</clipPath>
</defs>
</svg>
